<svg width="17" height="16" viewBox="0 0 17 16" fill="none" xmlns="http://www.w3.org/2000/svg">
<g id="Item &#226;&#143;&#181; Link" clip-path="url(#clip0_5_3675)">
<path id="Vector" d="M8.68539 0.0358174C13.0776 0.0358174 16.6502 3.60842 16.6502 8.00064C16.6502 12.3919 13.0776 15.9648 8.68539 15.9648C4.29411 15.9648 0.721191 12.3922 0.721191 8.00064C0.721191 4.73278 2.69971 1.91971 5.52088 0.693249C5.55139 0.675817 5.58345 0.66212 5.61644 0.651536C6.5615 0.255272 7.59808 0.0358174 8.68539 0.0358174ZM15.6541 8.00064C15.6541 6.22259 14.9839 4.59862 13.8835 3.36562C13.434 4.19488 12.3483 5.52313 9.79388 6.50897C9.81567 6.55037 9.83683 6.59053 9.85893 6.63255C10.1198 7.13434 10.3533 7.62741 10.5637 8.10835C12.9512 7.58383 14.8871 7.96422 15.6501 8.16656C15.6513 8.11146 15.6541 8.05636 15.6541 8.00064ZM13.1299 2.63753C11.9224 1.63519 10.3732 1.03193 8.68539 1.03193C7.96041 1.03193 7.26127 1.14305 6.60353 1.34943C7.13862 2.03395 8.09302 3.37932 9.32104 5.62399C12.0554 4.59862 12.8977 3.18539 13.1299 2.63753ZM5.63574 1.73605C3.69582 2.68422 2.25987 4.50804 1.84244 6.6892C2.71995 6.77076 5.24851 6.88375 8.36135 5.94523C7.04275 3.558 6.0594 2.25403 5.63574 1.73605ZM1.7173 8.00064C1.7173 9.85652 2.4482 11.5443 3.63512 12.7944C4.10952 11.9907 5.4415 10.1541 8.28384 8.86694C8.72711 8.66617 9.16321 8.50337 9.58905 8.36951C9.40353 7.95115 9.20057 7.52438 8.97582 7.092C8.931 7.00609 8.8871 6.92267 8.8429 6.83893C6.48804 7.57636 4.45193 7.74383 3.0994 7.74383C2.49053 7.74383 2.02485 7.71052 1.72539 7.68033C1.72041 7.78679 1.7173 7.89325 1.7173 8.00064ZM4.39154 13.4827C5.57598 14.4122 7.06641 14.9687 8.68539 14.9687C9.62858 14.9687 10.5279 14.7795 11.3487 14.4386C11.2498 13.6757 10.9217 11.6953 9.97629 9.2934C9.55823 9.41979 9.1296 9.5773 8.69411 9.77434C5.80166 11.0845 4.6443 13.0039 4.39154 13.4827ZM12.2907 13.962C13.9856 12.9332 15.2077 11.2013 15.5536 9.1748C15.0919 9.04033 13.2631 8.58897 10.9525 9.04905C11.7905 11.201 12.1469 13.0033 12.2907 13.962Z" fill="black"/>
</g>
<defs>
<clipPath id="clip0_5_3675">
<rect width="16" height="16" fill="white" transform="matrix(1 0 0 -1 0.689941 16)"/>
</clipPath>
</defs>
</svg>
