<svg width="16" height="16" viewBox="0 0 16 16" fill="none" xmlns="http://www.w3.org/2000/svg">
<g id="Item &#226;&#143;&#181; Link">
<path id="Vector" d="M5.11515 1.28421C4.69647 1.28421 3.01523 1.41028 3.01491 3.43487V5.75674H1.02705L1.0311 7.24872H3.01398L3.01523 14.7161H4.50783V7.24872H6.6806L7.03172 5.75674H4.51593V3.38787C4.51593 3.38787 4.49943 2.78086 5.2104 2.78086H6.50254L6.50908 1.2867H5.20853C5.20853 1.2867 5.17429 1.28421 5.11515 1.28421ZM5.11515 0.288101C5.16682 0.288101 5.20791 0.289035 5.23655 0.290591H6.50939H6.51188C7.06192 0.290591 7.50705 0.736661 7.50705 1.2867C7.50705 1.30538 7.50643 1.32312 7.5055 1.3418L7.49896 2.78522C7.49647 3.33402 7.05071 3.77697 6.50285 3.77697L5.51235 3.77728V4.76032H7.03203C7.34581 4.76032 7.64122 4.90818 7.82892 5.1597C8.01725 5.41059 8.07608 5.73588 7.98768 6.03721L7.63655 7.52919C7.51203 7.95347 7.12293 8.24483 6.68091 8.24483H5.50425V14.7158C5.50425 15.2662 5.05818 15.7119 4.50814 15.7119H3.01523C2.46519 15.7119 2.01912 15.2662 2.01912 14.7158L2.01818 8.24483H1.03141C0.482618 8.24483 0.0371707 7.80063 0.035303 7.25215L0.0312562 5.75985C0.0303223 5.49464 0.134914 5.24094 0.321684 5.05324C0.508766 4.86584 0.762774 4.76032 1.02737 4.76032H2.01912V3.43456C2.01912 1.89744 2.76682 1.12421 3.39437 0.746623C4.0574 0.347245 4.75717 0.288101 5.11515 0.288101Z" fill="black"/>
</g>
</svg>
