<svg width="245" height="75" viewBox="0 0 245 75" fill="none" xmlns="http://www.w3.org/2000/svg">
<g clip-path="url(#clip0_512_4)">
<path d="M101.771 35.9999H91.6973V14.2173H101.384C105.775 14.2173 108.358 16.4347 108.358 19.826C108.487 22.1738 106.937 24.2608 104.742 24.7825C107.195 25.3042 108.874 27.5216 108.874 29.9999C109.004 33.7825 106.291 35.9999 101.771 35.9999ZM100.48 18.5216H96.9925V23.0869H100.48C102.159 23.0869 103.192 22.3042 103.192 20.8695C103.192 19.4347 102.159 18.5216 100.48 18.5216ZM100.867 26.8695H96.9925V31.6955H100.867C102.675 31.6955 103.579 30.9129 103.579 29.3477C103.579 27.7825 102.546 26.8695 100.867 26.8695Z" fill="#00BA98"/>
<path d="M111.975 14.2173H117.27V27.2608C117.27 29.8695 118.561 31.3042 121.015 31.3042C122.952 31.4347 124.761 29.9999 124.89 28.0434C124.89 27.7825 124.89 27.5216 124.89 27.2608V14.2173H130.185V27.2608C130.185 33.2608 126.052 36.2608 121.015 36.2608C115.978 36.2608 112.104 33.2608 112.104 27.2608L111.975 14.2173Z" fill="#00BA98"/>
<path d="M138.967 14.2173V31.9564H145.812V36.1303H133.672V14.2173H138.967Z" fill="#00BA98"/>
<path d="M153.69 26.3477V35.9999H148.395V14.2173H153.69V23.739L160.922 14.2173H167.121L158.727 24.9129L167.38 35.9999H160.922L153.69 26.3477Z" fill="#00BA98"/>
<path d="M101.771 64.5653H91.6973V42.7827H101.384C105.775 42.7827 108.358 45.0001 108.358 48.3914C108.487 50.7392 106.937 52.8262 104.742 53.3479C107.195 53.8697 108.874 56.0871 108.874 58.5653C109.004 62.2175 106.291 64.5653 101.771 64.5653ZM100.48 46.9566H96.9925V51.5218H100.48C102.159 51.5218 103.192 50.7392 103.192 49.3045C103.192 47.8697 102.159 46.9566 100.48 46.9566ZM100.867 55.4349H96.9925V60.261H100.867C102.675 60.261 103.579 59.4784 103.579 57.9132C103.579 56.3479 102.546 55.4349 100.867 55.4349Z" fill="#00BA98"/>
<path d="M120.886 42.7827C126.181 42.7827 128.893 45.9131 128.893 49.6958C129.022 52.6958 126.956 55.3045 124.115 55.9566L129.151 64.5653H123.211L118.69 56.3479H117.399V64.5653H112.104V42.7827H120.886ZM120.498 47.0871H117.27V52.5653H120.498C122.436 52.5653 123.34 51.5218 123.34 49.8262C123.34 48.1305 122.565 47.0871 120.498 47.0871Z" fill="#00BA98"/>
<path d="M145.554 60.6523H137.546L136.255 64.5653H130.701L138.45 42.7827H144.52L152.269 64.5653H146.716L145.554 60.6523ZM141.55 48.6523L138.967 56.6088H144.262L141.55 48.6523Z" fill="#00BA98"/>
<path d="M174.095 42.7827V64.5653H168.8L160.018 51.1305V64.5653H154.723V42.7827H160.018L168.8 56.3479V42.7827H174.095Z" fill="#00BA98"/>
<path d="M197.344 53.6088C197.344 60.1305 192.953 64.5653 185.978 64.5653H177.842V42.7827H185.978C192.953 42.7827 197.344 47.0871 197.344 53.6088ZM185.72 60.0001C189.724 60.0001 192.048 57.6523 192.048 53.7392C192.048 49.8262 189.724 47.3479 185.72 47.3479H183.266V60.0001H185.72Z" fill="#00BA98"/>
<path d="M213.617 46.9566H205.609V51.3914H212.713V55.5653H205.609V60.3914H213.617V64.6958H200.443V42.7827H213.617V46.9566Z" fill="#00BA98"/>
<path d="M236.476 53.6088C236.476 60.1305 232.085 64.5653 225.111 64.5653H216.975V42.7827H225.111C231.956 42.7827 236.476 47.0871 236.476 53.6088ZM224.853 60.0001C228.857 60.0001 231.181 57.6523 231.181 53.7392C231.181 49.8262 228.857 47.3479 224.853 47.3479H222.399V60.0001H224.853Z" fill="#00BA98"/>
<path d="M241.899 64.8262C240.35 64.6957 239.187 63.261 239.316 61.6957C239.446 60.1305 240.866 58.9566 242.416 59.087C243.966 59.2175 245.128 60.5218 244.999 61.9566C244.999 63.5218 243.578 64.8262 242.029 64.8262H241.899Z" fill="#00BA98"/>
<path d="M48.8192 20.7394L24.5387 34.9568V63.522H24.4096L0 49.3046V20.7394L24.4096 6.52197H24.5387L48.8192 20.7394Z" fill="#00BA98"/>
<path d="M40.4236 58.9565L33.3203 63.5217V42.5217L40.1653 38.3478C43.265 36.5217 45.0731 37.5652 45.0731 40.6956C45.0731 43.0434 44.169 45.2608 42.4901 46.9565C44.169 46.4347 45.3314 47.7391 45.3314 50.0869C45.3314 53.7391 43.5233 57.1304 40.4236 58.9565ZM39.5196 42.913L37.1949 44.3478V48.6521L39.6487 47.0869C40.8111 46.4347 41.586 45.1304 41.4568 43.826C41.4568 42.5217 40.8111 42.1304 39.5196 42.913ZM39.7779 50.7391L37.0657 52.4347V56.9999L39.7779 55.3043C40.9402 54.5217 41.7151 53.2173 41.7151 51.913C41.7151 50.3478 41.0694 49.9565 39.7779 50.7391Z" fill="#00BA98"/>
<path d="M54.2432 50.2176L47.5273 54.5219V34.0437L53.9849 30.1306C56.8262 28.435 58.6344 29.348 58.6344 32.4784C58.6344 34.6958 57.7303 36.9132 56.1805 38.6089C57.8594 38.0871 58.8927 39.5219 58.8927 41.7393C58.8927 45.1306 57.0845 48.2611 54.2432 50.2176ZM53.3392 34.435L51.0144 35.8697V40.1741L53.3392 38.7393C54.5015 38.0871 55.1473 36.9132 55.1473 35.4784C55.1473 34.0437 54.5015 33.7828 53.3392 34.435ZM53.5975 42.1306L51.0144 43.6958V48.2611L53.5975 46.6958C54.7598 46.0437 55.4056 44.7393 55.4056 43.3045C55.4056 41.7393 54.7598 41.348 53.5975 42.1306Z" fill="#00BA98"/>
<path d="M72.7114 74.3478L70.3867 75V0.391304L72.7114 0V74.3478Z" fill="#00BA98"/>
</g>
<defs>
<clipPath id="clip0_512_4">
<rect width="245" height="75" fill="white"/>
</clipPath>
</defs>
</svg>
