<svg width="29" height="19" viewBox="0 0 29 19" fill="none" xmlns="http://www.w3.org/2000/svg">
<path id="Vector" d="M28.0333 8.9868C25.4304 3.96913 20.2774 0.574219 14.3771 0.574219C8.4768 0.574219 3.32236 3.9715 0.720899 8.98728C0.611101 9.20186 0.553894 9.43895 0.553894 9.67939C0.553894 9.91984 0.611101 10.1569 0.720899 10.3715C3.3238 15.3892 8.4768 18.7841 14.3771 18.7841C20.2774 18.7841 25.4319 15.3868 28.0333 10.371C28.1431 10.1565 28.2003 9.91937 28.2003 9.67892C28.2003 9.43847 28.1431 9.20139 28.0333 8.9868ZM14.3771 16.5079C13.0101 16.5079 11.6738 16.1074 10.5372 15.357C9.40061 14.6067 8.51473 13.5402 7.99161 12.2924C7.46848 11.0446 7.33161 9.67158 7.5983 8.34694C7.86498 7.0223 8.52325 5.80555 9.48986 4.85053C10.4565 3.89552 11.688 3.24515 13.0287 2.98167C14.3695 2.71818 15.7591 2.85341 17.0221 3.37026C18.285 3.88711 19.3645 4.76236 20.1239 5.88533C20.8834 7.00831 21.2887 8.32857 21.2887 9.67916C21.2892 10.576 21.1107 11.4642 20.7635 12.2929C20.4163 13.1216 19.9073 13.8746 19.2654 14.5088C18.6235 15.1429 17.8614 15.6459 17.0226 15.9889C16.1839 16.332 15.2849 16.5083 14.3771 16.5079ZM14.3771 5.12669C13.9658 5.13237 13.5572 5.19282 13.1623 5.30642C13.4878 5.74349 13.644 6.28135 13.6026 6.82246C13.5612 7.36356 13.3248 7.87209 12.9365 8.2558C12.5481 8.63951 12.0334 8.87301 11.4857 8.91394C10.9381 8.95488 10.3937 8.80054 9.95128 8.47892C9.69937 9.39586 9.74484 10.3678 10.0813 11.2578C10.4177 12.1479 11.0282 12.9113 11.8268 13.4406C12.6254 13.9699 13.5719 14.2385 14.5331 14.2085C15.4943 14.1785 16.4217 13.8514 17.1849 13.2734C17.9481 12.6953 18.5086 11.8954 18.7875 10.9861C19.0664 10.0768 19.0497 9.10402 18.7397 8.20462C18.4298 7.30522 17.8421 6.5245 17.0595 5.97236C16.2769 5.42022 15.3388 5.12445 14.3771 5.12669Z" fill="#00BA98"/>
</svg>
