<svg width="17" height="16" viewBox="0 0 17 16" fill="none" xmlns="http://www.w3.org/2000/svg">
<g id="Item &#226;&#143;&#181; Link" clip-path="url(#clip0_5_3671)">
<path id="Vector" d="M5.85313 1.02293H4.03243C4.03243 4.0732 2.04084 4.47631 1.37687 4.47631L1.36722 6.00347H3.37251V11.6474C3.37251 12.2827 3.43819 12.768 3.56955 13.1023C4.29827 14.9594 6.07477 14.9762 6.69018 14.9762C7.24239 14.9762 7.75757 14.9196 8.23321 14.8075C8.70854 14.6945 9.25391 14.5818 9.84037 14.302V11.9783C9.13687 12.5043 8.19866 12.7135 7.50325 12.7135C6.60644 12.7135 6.12333 12.2503 5.99041 11.8886C5.90543 11.6592 5.86341 11.1418 5.86341 10.3362L5.86839 6.00098H9.3445V4.50744H5.85313V1.02293ZM5.85313 0.0268194C6.40317 0.0268194 6.84924 0.472889 6.84924 1.02293V3.51164H9.3445C9.89454 3.51164 10.3406 3.9574 10.3406 4.50775V6.00129C10.3406 6.55133 9.89454 6.9974 9.3445 6.9974H6.86325L6.85983 10.3362C6.85983 11.1649 6.90714 11.4569 6.92426 11.535C6.95664 11.5733 7.10481 11.7177 7.50325 11.7177C7.89173 11.7177 8.65064 11.625 9.24364 11.1807C9.4192 11.0497 9.62901 10.9825 9.84037 10.9825C9.99228 10.9825 10.1454 11.017 10.2861 11.088C10.6236 11.2567 10.8365 11.6013 10.8365 11.9786V14.3023C10.8365 14.6867 10.6158 15.0363 10.2687 15.2016C9.63119 15.5057 9.03726 15.6418 8.5722 15.7513L8.46232 15.7772C7.91321 15.907 7.3171 15.9727 6.69018 15.9727C4.15788 15.9727 3.09142 14.6095 2.64224 13.4665C2.46356 13.0114 2.3764 12.4159 2.3764 11.6474V6.99958H1.36722C1.10201 6.99958 0.847998 6.89406 0.660916 6.70635C0.474146 6.51803 0.369554 6.2634 0.371111 5.99849L0.380761 4.47133C0.383251 3.92316 0.828698 3.4802 1.37687 3.4802C1.76566 3.4802 3.03632 3.30308 3.03632 1.02293C3.03632 0.472889 3.48239 0.0268194 4.03243 0.0268194H5.85313Z" fill="black"/>
</g>
<defs>
<clipPath id="clip0_5_3671">
<rect width="16" height="16" fill="white" transform="matrix(1 0 0 -1 0.339844 16)"/>
</clipPath>
</defs>
</svg>
