<svg width="17" height="16" viewBox="0 0 17 16" fill="none" xmlns="http://www.w3.org/2000/svg">
<g id="Item &#226;&#143;&#181; Link" clip-path="url(#clip0_5_3669)">
<path id="Vector" d="M11.3577 2.50072C9.77611 2.50072 8.49455 3.74368 8.49455 5.27737C8.49455 5.49278 8.51976 5.70695 8.56895 5.9099C6.18949 5.79348 4.08023 4.6878 2.66856 3.00874C2.42233 3.41745 2.28101 3.89465 2.28101 4.40391C2.28101 5.36734 2.78622 6.21621 3.55478 6.71457C3.08474 6.70025 2.64365 6.57512 2.25766 6.36687V6.40267C2.25766 7.74866 3.24443 8.87084 4.55369 9.12516C4.31432 9.18897 4.06062 9.22259 3.80039 9.22259C3.61579 9.22259 3.43618 9.20516 3.26155 9.17247C3.62451 10.275 4.68225 11.0785 5.93579 11.0999C4.95587 11.8455 3.7207 12.289 2.37969 12.289C2.14902 12.289 1.92116 12.276 1.69735 12.2498C2.96365 13.0371 4.46902 13.4984 6.08521 13.4984C11.3506 13.4984 14.23 9.26679 14.23 5.59768C14.23 5.47815 14.2272 5.35831 14.2219 5.2394C14.7812 4.8478 15.2656 4.35815 15.6503 3.80189C15.137 4.02352 14.5839 4.172 14.0061 4.24018C14.5967 3.89621 15.0505 3.35239 15.264 2.70461C14.7124 3.02243 14.0986 3.25216 13.4474 3.37823C12.9238 2.83753 12.1808 2.50072 11.3577 2.50072ZM11.3577 1.50461C12.2119 1.50461 13.0437 1.78601 13.7145 2.2906C14.0852 2.18259 14.4376 2.03255 14.7666 1.84267C14.9213 1.75333 15.0928 1.70944 15.2644 1.70944C15.4885 1.70944 15.7114 1.78477 15.8931 1.93263C16.2044 2.18601 16.3317 2.60095 16.22 2.98414C16.4784 3.16438 16.6477 3.46383 16.6477 3.80282C16.6477 4.02788 16.5727 4.23551 16.446 4.40204C16.0986 4.89948 15.6889 5.34337 15.2251 5.72718C15.1588 10.0599 11.7506 14.4951 6.0849 14.4951C4.34171 14.4951 2.64241 14.012 1.17097 13.0965C0.774705 12.8497 0.602876 12.361 0.757584 11.9202C0.898596 11.518 1.27836 11.2543 1.69673 11.2543C1.73626 11.2543 1.77579 11.2562 1.81564 11.2612C1.99494 11.283 2.18482 11.2939 2.37969 11.2939C2.74856 11.2939 3.10996 11.2543 3.46015 11.1765C2.93875 10.7351 2.53657 10.1558 2.31556 9.48376C2.25922 9.31255 2.25113 9.13356 2.28786 8.96298C1.64755 8.28438 1.26155 7.37885 1.26155 6.40298V6.36749C1.26155 6.11753 1.35556 5.88064 1.51836 5.69948C1.36552 5.29076 1.2849 4.85341 1.2849 4.40453C1.2849 3.73185 1.46825 3.07162 1.81564 2.49543C1.98124 2.22056 2.2698 2.04189 2.59011 2.01636C2.61626 2.01418 2.64241 2.01325 2.66856 2.01325C2.96116 2.01325 3.24101 2.14243 3.43058 2.36842C4.4765 3.61138 5.93175 4.45839 7.53206 4.77994C7.7814 2.93372 9.40194 1.50461 11.3577 1.50461Z" fill="black"/>
</g>
<defs>
<clipPath id="clip0_5_3669">
<rect width="16" height="16" fill="white" transform="matrix(1 0 0 -1 0.669922 16)"/>
</clipPath>
</defs>
</svg>
