<svg width="17" height="16" viewBox="0 0 17 16" fill="none" xmlns="http://www.w3.org/2000/svg">
<g id="Item &#226;&#143;&#181; Link" clip-path="url(#clip0_5_3673)">
<path id="Vector" d="M14.7015 2.98381C15.9009 3.84763 16.003 7.10584 16.0058 8.07922C16.0027 9.28949 15.8685 12.1804 14.7015 13.0199C14.2713 13.3293 13.0695 13.7402 8.02419 13.7402C2.61532 13.7402 1.81812 13.269 1.56131 13.1142C0.225277 12.3114 0.0677676 9.06693 0.0512695 8.09167C0.0630983 7.35331 0.193215 3.71191 1.56224 2.8895C1.81967 2.73416 2.62123 2.26008 8.02419 2.26008C13.0664 2.26008 14.2698 2.67284 14.7015 2.98381ZM14.1198 12.2115C14.5434 11.9068 15.0032 10.4845 15.0097 8.08234C15.0032 5.7172 14.5462 4.09977 14.1198 3.79222C13.9448 3.66677 12.9456 3.2565 8.02419 3.2565C3.26777 3.2565 2.26512 3.62911 2.07586 3.74335C1.60053 4.02817 1.08629 5.74179 1.04707 8.08918C1.08691 10.4416 1.5943 11.9725 2.07493 12.2607C2.26357 12.3746 3.26279 12.7441 8.02419 12.7441C12.9496 12.7441 13.9461 12.3363 14.1198 12.2115ZM11.2724 7.60856C11.4219 7.69821 11.5131 7.86039 11.5131 8.03502C11.5131 8.20965 11.4215 8.37121 11.2721 8.46148L6.79057 11.2126C6.71181 11.2602 6.62216 11.2842 6.53345 11.2842C6.4494 11.2842 6.36473 11.2627 6.28878 11.2198C6.1322 11.1314 6.03539 10.9654 6.03539 10.7861V5.28514C6.03539 5.10553 6.1322 4.93961 6.28878 4.85121C6.44504 4.76311 6.6368 4.7656 6.79088 4.85837L11.2724 7.60856ZM7.03181 9.90366L10.0513 8.03502L7.03181 6.16669V9.90366Z" fill="black"/>
</g>
<defs>
<clipPath id="clip0_5_3673">
<rect width="16" height="16" fill="white" transform="matrix(1 0 0 -1 0.0200195 16)"/>
</clipPath>
</defs>
</svg>
